<svg xmlns="http://www.w3.org/2000/svg" width="512" height="512" viewBox="0 0 512 512" version="1.1">
	<path d="M 341.057 134.148 C 315.401 137.890, 286.831 161.973, 258.666 203.599 L 250.480 215.698 238.102 198.323 C 222.155 175.938, 209.369 161.036, 198.971 152.716 C 182.821 139.795, 170.750 135.391, 154 136.307 C 142.039 136.961, 131.545 140.542, 119.517 148.075 C 109.352 154.441, 97.058 165.509, 90.413 174.276 C 80.863 186.878, 73.775 206.116, 66.198 240.009 C 61.315 261.849, 60.548 268.327, 60.632 287 C 60.702 302.531, 61.006 305.625, 63.336 314.500 C 64.780 320, 67.998 328.628, 70.486 333.672 C 77.775 348.451, 92.310 362.397, 106.500 368.227 C 115.285 371.837, 118.768 372.474, 129.500 372.436 C 138.839 372.402, 141.518 372.008, 147.242 369.825 C 158.198 365.647, 164.850 361.094, 175.475 350.500 C 191.687 334.335, 210.931 308.265, 236.745 267.500 C 244.755 254.850, 251.370 244.407, 251.444 244.294 C 251.517 244.181, 254.842 249.006, 258.831 255.017 C 262.821 261.027, 271.288 275.970, 277.647 288.222 C 296.251 324.068, 299.519 329.630, 309.533 342.500 C 323.843 360.890, 337.926 371.166, 355.691 376.176 C 366.327 379.177, 383.066 379.142, 394.500 376.096 C 405.082 373.277, 421.008 365.350, 428.659 359.093 C 436.668 352.543, 444.146 341.350, 447.615 330.715 C 449.942 323.583, 450.355 320.390, 450.745 306.500 C 451.391 283.521, 448.167 260.636, 440.559 234.205 C 434.374 212.717, 424.101 189.452, 414.237 174.595 C 408.305 165.661, 396.321 153.040, 388.500 147.492 C 372.841 136.384, 356.752 131.859, 341.057 134.148 M 338.678 150.576 C 322.274 154.549, 307.268 166.224, 287.283 190.565 C 281.898 197.123, 260.997 228.043, 261.009 229.434 C 261.014 230.020, 263.923 234.550, 267.473 239.500 C 275.079 250.107, 281.655 261.647, 297.029 291.371 C 319.671 335.146, 334.230 352.231, 355.398 359.865 C 361.563 362.088, 364.083 362.421, 374.500 362.390 C 385.441 362.358, 387.378 362.057, 396.458 358.982 C 407.785 355.146, 418.772 348.356, 423.824 342.069 C 428.746 335.944, 432.961 326.110, 434.656 316.795 C 437.419 301.605, 434.939 274.500, 428.497 249.500 C 421.643 222.898, 412.278 200.618, 400.539 182.984 C 392.994 171.652, 380.973 159.809, 372.419 155.281 C 360.949 149.210, 350.396 147.739, 338.678 150.576 M 146.788 152.488 C 128.010 157.250, 106.210 175.254, 96.614 193.926 C 91.211 204.439, 88.124 214.110, 83.073 236.355 C 76.858 263.722, 75.668 273.209, 76.284 290.500 C 76.895 307.653, 78.844 316.105, 84.807 327.452 C 89.036 335.500, 97.941 345.471, 104.874 349.919 C 107.507 351.609, 112.325 353.926, 115.581 355.068 C 120.341 356.738, 123.289 357.073, 130.635 356.781 C 138.845 356.454, 140.567 356.025, 147.635 352.537 C 153.812 349.490, 157.440 346.709, 164.539 339.579 C 174.340 329.735, 194.564 303.364, 210.613 279.500 C 224.990 258.122, 241.214 231, 240.593 229.381 C 239.789 227.287, 224.738 205.991, 214.555 192.540 C 209.575 185.962, 201.675 176.734, 197 172.032 C 183.095 158.050, 172.348 152.145, 159.500 151.429 C 155.362 151.198, 150.165 151.631, 146.788 152.488 M 143.024 173.603 C 136.933 175.240, 131.102 178.392, 123.264 184.284 C 117.117 188.904, 114 193.490, 114 197.913 C 114 201.763, 117.835 206, 121.320 206 C 124.126 206, 129 202.487, 129 200.465 C 129 198.882, 139.274 191.619, 144.749 189.331 C 147.447 188.204, 150.052 187.987, 154.787 188.494 C 160.567 189.113, 161.412 188.961, 163.591 186.915 C 166.598 184.090, 166.828 178.828, 164.065 176.065 C 161.865 173.865, 155.941 171.982, 151.500 172.071 C 149.850 172.105, 146.036 172.794, 143.024 173.603 M 178.994 184.734 C 177.426 186.728, 177.001 188.286, 177.425 190.484 C 178.583 196.492, 185.885 199.115, 190 195 C 192.614 192.386, 192.712 185.954, 190.171 183.655 C 189.165 182.745, 186.723 182, 184.744 182 C 182.014 182, 180.626 182.660, 178.994 184.734 M 331.923 309.923 C 330.315 311.531, 329 313.619, 329 314.564 C 329 317.977, 333.616 325.443, 339.158 330.991 C 345.946 337.787, 356.951 343.852, 364.015 344.688 C 368.390 345.206, 369.396 344.976, 371.533 342.969 C 372.970 341.619, 374 339.528, 374 337.961 C 374 334.252, 370.619 330.292, 366.738 329.455 C 362.991 328.646, 356.771 325.630, 352.808 322.700 C 351.293 321.580, 348.192 318.009, 345.916 314.765 C 342.239 309.524, 338.971 307, 335.858 307 C 335.301 307, 333.531 308.315, 331.923 309.923" stroke="none" fill="currentColor" fill-rule="evenodd"/>
</svg>